HIERARCHY
ROOT Hips
{
	OFFSET -3.958830 18.904000 13.208200
	CHANNELS 6 Xposition Yposition Zposition Zrotation Yrotation Xrotation 
	JOINT LHipJoint
	{
		OFFSET 0.000000 0.000000 0.000000
		CHANNELS 3 Zrotation Yrotation Xrotation
		JOINT LeftUpLeg
		{
			OFFSET 1.800000 -1.400000 0.085000
			CHANNELS 3 Zrotation Yrotation Xrotation
			JOINT LeftLeg
			{
				OFFSET 2.215000 -6.000000 0.000000
				CHANNELS 3 Zrotation Yrotation Xrotation
				JOINT LeftFoot
				{
					OFFSET 2.500000 -6.900000 0.000000
					CHANNELS 3 Zrotation Yrotation Xrotation
					JOINT LeftToeBase
					{
						OFFSET 0.200000 -0.500000 1.950000
						CHANNELS 3 Zrotation Yrotation Xrotation
						End Site
						{
							OFFSET 0.000000 0.000000 0.000000
						}
					}
				}
			}
		}
	}
	JOINT RHipJoint
	{
		OFFSET 0.000000 0.000000 0.000000
		CHANNELS 3 Zrotation Yrotation Xrotation
		JOINT RightUpLeg
		{
			OFFSET -1.800000 -1.400000 0.085000
			CHANNELS 3 Zrotation Yrotation Xrotation
			JOINT RightLeg
			{
				OFFSET -2.215000 -6.000000 0.000000
				CHANNELS 3 Zrotation Yrotation Xrotation
				JOINT RightFoot
				{
					OFFSET -2.500000 -6.900000 0.000000
					CHANNELS 3 Zrotation Yrotation Xrotation
					JOINT RightToeBase
					{
						OFFSET -0.200000 -0.500000 1.950000
						CHANNELS 3 Zrotation Yrotation Xrotation
						End Site
						{
							OFFSET 0.000000 0.000000 0.000000
						}
					}
				}
			}
		}
	}
	JOINT LowerBack
	{
		OFFSET 0.000000 0.000000 0.000000
		CHANNELS 3 Zrotation Yrotation Xrotation
		JOINT Spine
		{
			OFFSET -0.087000 1.940000 -0.288900
			CHANNELS 3 Zrotation Yrotation Xrotation
			JOINT Spine1
			{
				OFFSET 0.000000 1.950000 0.060000
				CHANNELS 3 Zrotation Yrotation Xrotation
				JOINT Neck
				{
					OFFSET 0.000000 0.000000 0.000000
					CHANNELS 3 Zrotation Yrotation Xrotation
					JOINT Neck1
					{
						OFFSET 0.000000 1.600000 0.340000
						CHANNELS 3 Zrotation Yrotation Xrotation
						JOINT Head
						{
							OFFSET 0.000000 1.667000 -0.240000
							CHANNELS 3 Zrotation Yrotation Xrotation
							End Site
							{
								OFFSET 0.000000 0.000000 0.000000
							}
						}
					}
				}
				JOINT LeftShoulder
				{
					OFFSET 0.000000 0.000000 0.000000
					CHANNELS 3 Zrotation Yrotation Xrotation
					JOINT LeftArm
					{
						OFFSET 2.700000 1.550000 -0.730000
						CHANNELS 3 Zrotation Yrotation Xrotation
						JOINT LeftForeArm
						{
							OFFSET 5.450000 0.000000 0.000000
							CHANNELS 3 Zrotation Yrotation Xrotation
							JOINT LeftHand
							{
								OFFSET 3.450000 0.000000 0.000000
								CHANNELS 3 Zrotation Yrotation Xrotation
								JOINT LeftHandIndex1
								{
									OFFSET 0.750000 0.000000 0.000000
									CHANNELS 3 Zrotation Yrotation Xrotation
									End Site
									{
										OFFSET 0.000000 0.000000 0.000000
									}
								}
							}
						}
					}
				}
				JOINT RightShoulder
				{
					OFFSET 0.000000 0.000000 0.000000
					CHANNELS 3 Zrotation Yrotation Xrotation
					JOINT RightArm
					{
						OFFSET -2.700000 1.550000 -0.730000
						CHANNELS 3 Zrotation Yrotation Xrotation
						JOINT RightForeArm
						{
							OFFSET -5.450000 0.000000 0.000000
							CHANNELS 3 Zrotation Yrotation Xrotation
							JOINT RightHand
							{
								OFFSET -3.450000 0.000000 0.000000
								CHANNELS 3 Zrotation Yrotation Xrotation
								JOINT RightHandIndex1
								{
									OFFSET -0.750000 0.000000 0.000000
									CHANNELS 3 Zrotation Yrotation Xrotation
									End Site
									{
										OFFSET 0.000000 0.000000 0.000000
									}
								}
							}
						}
					}
				}
			}
		}
	}
}
MOTION
Frames: 4
Frame Time: 0.016667
0.906700 16.650580 -3.461090 -10.156847 17.806589 -0.453745 -15.312729 12.979482 2.533001 18.147029 -0.786703 -25.788936 7.340001 5.627122 33.228412 0.296770 5.376522 2.529049 -0.301920 -0.513210 -0.077950 17.926076 -12.564298 2.052629 -22.055940 -0.556411 -6.400305 0.222987 -5.769686 16.991760 -0.082751 -4.447604 2.823646 -0.403450 0.013550 0.066610 -3.248729 1.825294 -6.821015 0.248943 11.254063 9.010435 2.688727 12.471767 -5.512954 4.892799 6.943535 -11.523808 12.561941 -16.656450 29.282516 -0.521900 -13.749950 5.165230 -8.441240 13.910440 2.851084 -69.428801 19.842231 -16.415262 -53.397110 -41.655980 17.434921 -3.499677 3.143828 0.114820 0.009670 -0.045650 -0.102010 -2.525263 -11.455362 8.622130 27.677956 -26.100284 -7.079195 -1.872379 2.532971 0.243569 2.890101 -1.076547 -0.021730 -0.120160 0.110330 -0.041360 
0.840990 16.665640 -3.466200 -10.384736 18.659139 -0.552724 -15.299133 12.858106 2.460881 18.563744 -0.460866 -25.886679 7.528163 5.471029 32.071551 0.277895 5.202861 2.588700 -0.306700 -0.522020 -0.077940 17.951802 -12.523824 2.198167 -22.131674 -0.434525 -4.978949 1.717763 -5.993023 15.132258 -0.113011 -4.573621 2.789869 -0.408180 0.009840 0.069510 -3.318167 2.071763 -6.840958 1.071864 11.614286 8.640091 2.791207 12.905948 -5.499985 4.965899 7.095921 -12.009780 13.116292 -17.550597 28.832007 -0.947470 -14.527550 5.535490 -8.002179 13.747454 3.149123 -69.609834 20.878829 -16.471435 -54.975029 -41.630287 18.072039 -3.485857 3.150825 0.107680 0.010260 -0.048230 -0.104460 -3.371745 -10.954691 9.021829 24.817569 -25.613853 -6.254770 -2.763668 2.170106 0.302354 2.894929 -1.107639 -0.018350 -0.126700 0.110320 -0.038970 
0.781000 16.691160 -3.474260 -10.517824 19.903055 -0.968940 -15.285349 12.772901 2.370693 18.626039 -0.131702 -25.793931 7.916516 5.179463 30.759971 0.248244 4.972744 2.663806 -0.305120 -0.525240 -0.072730 17.967762 -12.511501 2.355149 -22.096673 -0.295705 -3.274884 2.906617 -6.154520 13.469780 -0.162288 -4.724081 2.748494 -0.412470 -0.004150 0.070890 -3.393987 2.309246 -6.880736 2.014059 11.936037 8.561829 2.854639 13.231527 -5.124928 4.995832 7.205016 -12.805608 13.665109 -18.114272 29.082207 -1.032710 -15.174380 5.499040 -7.387214 12.771349 3.819060 -70.080348 22.426902 -17.166738 -57.878944 -40.486359 18.257313 -3.457543 3.149513 0.118190 -0.001300 -0.039800 -0.109500 -4.297586 -9.541348 9.476141 20.738545 -23.698253 -5.140164 0.147195 -3.244360 -0.005782 2.928878 -1.081436 -0.015020 -0.130980 0.111140 -0.041900 
0.729180 16.712370 -3.480710 -10.548442 21.453933 -1.226822 -15.268692 12.663435 2.290858 18.516465 0.091321 -25.868039 8.305441 4.864233 29.418879 0.214084 4.729194 2.744772 -0.299780 -0.521390 -0.058410 17.993118 -12.492489 2.511617 -22.038501 -0.173305 -1.637594 4.071916 -6.303567 11.867379 -0.217302 -4.889639 2.700189 -0.411490 -0.020550 0.070580 -3.493078 2.555995 -6.914159 2.853583 12.178154 8.296035 2.594747 13.445801 -4.919137 5.072055 7.445792 -13.424073 14.483020 -18.901361 29.111268 -1.328280 -15.755950 5.280410 -7.536359 11.631115 4.372540 -70.099669 23.335472 -17.568330 -59.407775 -40.223624 18.429728 -3.438900 3.146203 0.126030 -0.011370 -0.029560 -0.117610 -4.558347 -8.233420 9.791889 18.165331 -21.751229 -4.468715 0.584648 -7.628802 -0.136045 2.972773 -1.061832 -0.011710 -0.130510 0.109960 -0.046900 
